<svg width="612" height="613" viewBox="0 0 612 613" fill="none" xmlns="http://www.w3.org/2000/svg">
<rect x="16.5" y="17.4387" width="579" height="579" rx="289.5" fill="#0D192E" stroke="url(#paint0_linear_16_39)" stroke-width="33"/>
<g clip-path="url(#clip0_16_39)">
<path d="M462.649 199.923L320.298 117.789C311.393 112.652 300.439 112.652 291.534 117.789L149.183 199.923C140.279 205.061 134.802 214.541 134.802 224.816V389.073C134.802 399.336 140.279 408.828 149.183 413.966L291.534 496.1C300.439 501.237 311.393 501.237 320.298 496.1L462.649 413.966C471.553 408.828 477.03 399.348 477.03 389.073V224.816C477.03 214.552 471.553 205.061 462.649 199.923Z" fill="url(#paint1_linear_16_39)"/>
<path d="M279.717 167.475L176.939 228.666C174.296 230.233 172.683 233.088 172.683 236.155V379.111C172.683 382.189 174.307 385.043 176.961 386.61L197.134 398.553C201.289 401.015 206.543 398.016 206.543 393.192V352.046C206.543 347.961 211.617 346.08 214.294 349.159L255.524 396.807C256.89 398.396 257.652 400.411 257.652 402.515V428.584C257.652 431.673 259.287 434.538 261.964 436.105L279.785 446.548C285.598 449.962 292.923 445.765 292.923 439.027V389.319C292.923 387.248 292.184 385.245 290.84 383.666L245.488 330.399C243.046 327.534 245.085 323.135 248.848 323.135H284.186C289.003 323.135 292.912 319.229 292.912 314.416V174.963C292.912 168.202 285.542 164.005 279.717 167.475ZM254.426 290.261H211.46C208.391 290.261 205.904 287.776 205.904 284.71V251.243C205.904 249.228 207.002 247.37 208.76 246.385L251.727 222.488C255.434 220.428 259.993 223.104 259.993 227.346V284.71C259.993 287.776 257.506 290.261 254.437 290.261H254.426Z" fill="#0D192E"/>
<path d="M434.781 226.808L331.219 167.15C325.405 163.803 318.136 167.989 318.136 174.705V439.262C318.136 445.955 325.361 450.152 331.185 446.839L434.748 387.853C437.469 386.297 439.149 383.409 439.149 380.275V330.433C439.149 327.903 438.052 325.497 436.125 323.84L421.631 311.315C419.044 309.077 419.19 305.014 421.945 302.976L435.61 292.88C437.839 291.235 439.149 288.638 439.149 285.874V234.375C439.149 231.263 437.481 228.375 434.781 226.82V226.808ZM361.125 223.35L401.728 247.627C403.553 248.713 404.662 250.683 404.662 252.798V284.239C404.662 287.564 401.963 290.272 398.625 290.272H358.022C354.696 290.272 351.985 287.575 351.985 284.239V228.532C351.985 223.853 357.092 220.954 361.114 223.361L361.125 223.35ZM404.024 368.265L360.912 391.759C356.891 393.953 351.996 391.043 351.996 386.465V328.082C351.996 324.758 354.695 322.049 358.033 322.049H401.145C404.472 322.049 407.182 324.747 407.182 328.082V362.959C407.182 365.164 405.973 367.19 404.035 368.254L404.024 368.265Z" fill="#0D192E"/>
</g>
<defs>
<linearGradient id="paint0_linear_16_39" x1="123.686" y1="537.604" x2="431.66" y2="41.1407" gradientUnits="userSpaceOnUse">
<stop stop-color="#27A0EF"/>
<stop offset="1" stop-color="#C0E4FF"/>
</linearGradient>
<linearGradient id="paint1_linear_16_39" x1="203.966" y1="452.436" x2="407.663" y2="161.319" gradientUnits="userSpaceOnUse">
<stop stop-color="#27A0EF"/>
<stop offset="1" stop-color="#C0E4FF"/>
</linearGradient>
<clipPath id="clip0_16_39">
<rect width="612" height="386" fill="white" transform="translate(0 113.939)"/>
</clipPath>
</defs>
</svg>
